<svg aria-hidden="true" style="width:24px;height:24px;position:absolute;overflow:hidden" xmlns="http://www.w3.org/2000/svg"><defs><symbol id="icon-site-logo" viewBox="0 0 32 32"><path fill="none" stroke="#fff" style="stroke:var(--color1,#fff)" stroke-linejoin="round" stroke-linecap="round" stroke-width="2.667" d="M26.427 2.667H5.574a2.907 2.907 0 0 0-2.907 2.907v20.853a2.907 2.907 0 0 0 2.907 2.907h20.853a2.907 2.907 0 0 0 2.907-2.907V5.574a2.907 2.907 0 0 0-2.907-2.907zm-17.094 0v26.667M22.667 2.667v26.667M2.667 16h26.667M2.667 9.333h6.667M2.667 22.667h6.667m13.333 0h6.667M22.667 9.333h6.667"/></symbol><symbol id="icon-search-film" viewBox="0 0 32 32"><path stroke-linejoin="round" stroke-linecap="round" stroke-width="2.667" d="M14.667 25.333c5.891 0 10.667-4.776 10.667-10.667S20.558 3.999 14.667 3.999 4 8.775 4 14.666s4.776 10.667 10.667 10.667zM28 28.001l-5.8-5.8"/></symbol><symbol id="icon-spinner" viewBox="0 0 243.6 205"><path d="M132.7 190.5c-1.4 0-2.5-1.1-2.5-2.5s1.1-2.5 2.5-2.5c9.5 0 18.8-3.7 25.8-7 2.5-1.2 5.1-2.4 7.5-3.6 5.8-2.9 11.9-5.9 18.2-8 10.6-3.6 22-4.8 32.8-3.4 10.7 1.4 19.6 5.3 25.7 11.2 1 .9 1 2.5 0 3.5-.9 1-2.5 1-3.5 0-6.8-6.6-16.2-9-22.9-9.9-10.1-1.3-20.7-.2-30.6 3.1-6 2-11.9 4.9-17.6 7.8-2.5 1.2-5.1 2.5-7.6 3.7-7.4 3.6-17.3 7.6-27.8 7.6z"/><path d="M121.8 13.5c-49.2 0-89 39.8-89 89s39.8 89 89 89 89-39.8 89-89-39.8-89-89-89zm0 18.7c11 0 20 8.9 20 20 0 11-8.9 20-20 20s-20-8.9-20-20 9-20 20-20zM54.9 80.8C58.3 70.3 69.6 64.6 80.1 68c10.5 3.4 16.2 14.7 12.8 25.2-3.4 10.5-14.7 16.2-25.2 12.8-10.4-3.5-16.2-14.7-12.8-25.2zm53.5 74.2c-6.5 8.9-19 10.9-27.9 4.4-8.9-6.5-10.9-19-4.4-27.9 6.5-8.9 19-10.9 27.9-4.4 8.9 6.5 10.8 19 4.4 27.9zm13.4-42.1c-5.8 0-10.4-4.7-10.4-10.4 0-5.8 4.7-10.4 10.4-10.4 5.8 0 10.4 4.7 10.4 10.4 0 5.8-4.6 10.4-10.4 10.4zm41.3 46.5c-8.9 6.5-21.4 4.5-27.9-4.4s-4.5-21.4 4.4-27.9 21.4-4.5 27.9 4.4 4.6 21.4-4.4 27.9zm12.8-53.5c-10.5 3.4-21.8-2.3-25.2-12.8-3.4-10.5 2.3-21.8 12.8-25.2 10.5-3.4 21.8 2.3 25.2 12.8 3.4 10.6-2.3 21.8-12.8 25.2z"/></symbol><symbol id="icon-heart" viewBox="0 0 34 32"><path fill="#ff6b08" style="fill:var(--color5,#ff6b08)" d="m17.231 31.705-2.412-2.412C5.859 21.367.001 16.025.001 9.478L0 9.354A9.354 9.354 0 0 1 9.484.001h-.007c3.1.032 5.868 1.423 7.742 3.605l.012.014A10.322 10.322 0 0 1 24.979.002h.006l.124-.001a9.354 9.354 0 0 1 9.354 9.354l-.001.13v-.007c0 6.548-5.858 11.889-14.818 19.815l-2.412 2.412z"/></symbol></defs></svg>