<svg aria-hidden="true" style="width:24px;height:24px;position:absolute;overflow:hidden" xmlns="http://www.w3.org/2000/svg"><defs><symbol id="icon-site-logo" viewBox="0 0 32 32"><path stroke-linejoin="round" stroke-linecap="round" stroke-width="2.667" d="M26.427 2.667H5.574a2.907 2.907 0 0 0-2.907 2.907v20.853a2.907 2.907 0 0 0 2.907 2.907h20.853a2.907 2.907 0 0 0 2.907-2.907V5.574a2.907 2.907 0 0 0-2.907-2.907zm-17.094 0v26.667M22.667 2.667v26.667M2.667 16h26.667M2.667 9.333h6.667M2.667 22.667h6.667m13.333 0h6.667M22.667 9.333h6.667"/></symbol><symbol id="icon-search-film" viewBox="0 0 32 32"><path stroke-linejoin="round" stroke-linecap="round" stroke-width="2.667" d="M14.667 25.333c5.891 0 10.667-4.776 10.667-10.667S20.558 3.999 14.667 3.999 4 8.775 4 14.666s4.776 10.667 10.667 10.667zM28 28.001l-5.8-5.8"/></symbol><symbol id="icon-spinner" viewBox="0 0 243.6 205"><path d="M132.7 190.5c-1.4 0-2.5-1.1-2.5-2.5s1.1-2.5 2.5-2.5c9.5 0 18.8-3.7 25.8-7 2.5-1.2 5.1-2.4 7.5-3.6 5.8-2.9 11.9-5.9 18.2-8 10.6-3.6 22-4.8 32.8-3.4 10.7 1.4 19.6 5.3 25.7 11.2 1 .9 1 2.5 0 3.5-.9 1-2.5 1-3.5 0-6.8-6.6-16.2-9-22.9-9.9-10.1-1.3-20.7-.2-30.6 3.1-6 2-11.9 4.9-17.6 7.8-2.5 1.2-5.1 2.5-7.6 3.7-7.4 3.6-17.3 7.6-27.8 7.6z"/><path d="M121.8 13.5c-49.2 0-89 39.8-89 89s39.8 89 89 89 89-39.8 89-89-39.8-89-89-89zm0 18.7c11 0 20 8.9 20 20 0 11-8.9 20-20 20s-20-8.9-20-20 9-20 20-20zM54.9 80.8C58.3 70.3 69.6 64.6 80.1 68c10.5 3.4 16.2 14.7 12.8 25.2-3.4 10.5-14.7 16.2-25.2 12.8-10.4-3.5-16.2-14.7-12.8-25.2zm53.5 74.2c-6.5 8.9-19 10.9-27.9 4.4-8.9-6.5-10.9-19-4.4-27.9 6.5-8.9 19-10.9 27.9-4.4 8.9 6.5 10.8 19 4.4 27.9zm13.4-42.1c-5.8 0-10.4-4.7-10.4-10.4 0-5.8 4.7-10.4 10.4-10.4 5.8 0 10.4 4.7 10.4 10.4 0 5.8-4.6 10.4-10.4 10.4zm41.3 46.5c-8.9 6.5-21.4 4.5-27.9-4.4s-4.5-21.4 4.4-27.9 21.4-4.5 27.9 4.4 4.6 21.4-4.4 27.9zm12.8-53.5c-10.5 3.4-21.8-2.3-25.2-12.8-3.4-10.5 2.3-21.8 12.8-25.2 10.5-3.4 21.8 2.3 25.2 12.8 3.4 10.6-2.3 21.8-12.8 25.2z"/></symbol><symbol id="icon-heart" viewBox="0 0 34 32"><path d="m17.231 31.705-2.412-2.412C5.859 21.367.001 16.025.001 9.478L0 9.354A9.354 9.354 0 0 1 9.484.001h-.007c3.1.032 5.868 1.423 7.742 3.605l.012.014A10.322 10.322 0 0 1 24.979.002h.006l.124-.001a9.354 9.354 0 0 1 9.354 9.354l-.001.13v-.007c0 6.548-5.858 11.889-14.818 19.815l-2.412 2.412z"/></symbol><symbol id="icon-close" viewBox="0 0 32 32"><path stroke-width="2.133" d="m8.533 8.533 14.933 14.933M8.533 23.467 23.466 8.534"/></symbol><symbol id="moon-icon" viewBox="0 0 499.6 499.6" style="enable-background:new 0 0 499.6 499.6"><circle style="fill:#063f66" cx="249.6" cy="250" r="249.6"/><path style="fill:#022730" d="M72.8 73.2c97.6-97.6 256-97.6 353.6 0s97.6 256 0 353.6"/><ellipse style="fill:#dcf9f6" cx="133.6" cy="425.2" rx="2.4" ry="21.6"/><ellipse style="fill:#dcf9f6" cx="133.6" cy="426" rx="21.6" ry="2.4"/><ellipse transform="rotate(-45.138 426.474 150.985)" style="fill:#dcf9f6" cx="426.474" cy="150.981" rx="21.6" ry="2.4"/><ellipse transform="rotate(45.138 426.227 151.242)" style="fill:#dcf9f6" cx="426.225" cy="151.245" rx="21.6" ry="2.4"/><ellipse style="fill:#dcf9f6" cx="366.4" cy="84.4" rx=".8" ry="9.6"/><ellipse style="fill:#dcf9f6" cx="366.4" cy="84.4" rx="9.6" ry=".8"/><ellipse transform="rotate(-135.292 178.387 102.907)" style="fill:#dcf9f6" cx="178.387" cy="102.907" rx="10.4" ry=".8"/><ellipse transform="rotate(-44.708 178.49 102.741)" style="fill:#dcf9f6" cx="178.491" cy="102.742" rx="10.4" ry=".8"/><ellipse transform="rotate(-135.145 96.57 365.442)" style="fill:#dcf9f6" cx="96.571" cy="365.441" rx="10.4" ry=".8"/><ellipse transform="rotate(-44.855 97.137 365.2)" style="fill:#dcf9f6" cx="97.139" cy="365.198" rx="10.4" ry=".8"/><ellipse transform="rotate(-45.583 303.383 74.881)" style="fill:#dcf9f6" cx="303.395" cy="74.884" rx="4.8" ry=".8"/><ellipse transform="rotate(45.583 303.488 75.226)" style="fill:#dcf9f6" cx="303.501" cy="75.23" rx="4.8" ry=".8"/><ellipse transform="rotate(-45.591 215.488 446.737)" style="fill:#dcf9f6" cx="215.498" cy="446.756" rx="4.8" ry=".8"/><ellipse transform="rotate(45.591 215.77 447.176)" style="fill:#dcf9f6" cx="215.78" cy="447.195" rx="4.8" ry=".8"/><circle style="fill:#dcf9f6" cx="249.6" cy="250" r="160"/><path style="fill:#95bfb9" d="M385.6 250c0 88-48 160-136 160s-160-72-160-160 72-160 160-160 136 72 136 160z"/><circle style="fill:#78a8a0" cx="138.4" cy="165.2" r="9.6"/><circle style="fill:#78a8a0" cx="124.8" cy="201.2" r="1.6"/><circle style="fill:#78a8a0" cx="189.6" cy="222" r="29.6"/><circle style="fill:#78a8a0" cx="202.4" cy="157.2" r="8"/><circle style="fill:#78a8a0" cx="257.6" cy="153.2" r="2.4"/><circle style="fill:#78a8a0" cx="278.4" cy="126" r="2.4"/><circle style="fill:#78a8a0" cx="201.6" cy="127.6" r="4"/><circle style="fill:#78a8a0" cx="233.6" cy="114" r="1.6"/><circle style="fill:#78a8a0" cx="270.4" cy="206" r="6.4"/><circle style="fill:#78a8a0" cx="318.4" cy="202" r="4"/><circle style="fill:#78a8a0" cx="328.8" cy="156.4" r="6.4"/><circle style="fill:#78a8a0" cx="300.8" cy="285.2" r="17.6"/><circle style="fill:#78a8a0" cx="156" cy="295.6" r="5.6"/><circle style="fill:#78a8a0" cx="213.6" cy="271.6" r="2.4"/><circle style="fill:#78a8a0" cx="241.6" cy="331.6" r="9.6"/><circle style="fill:#78a8a0" cx="124.8" cy="254.8" r="6.4"/><circle style="fill:#78a8a0" cx="267.2" cy="250.8" r="1.6"/><circle style="fill:#78a8a0" cx="344" cy="254" r="4"/><circle style="fill:#78a8a0" cx="174.4" cy="339.6" r="9.6"/><circle style="fill:#78a8a0" cx="193.6" cy="305.2" r="3.2"/><circle style="fill:#78a8a0" cx="292.8" cy="342.8" r="3.2"/><circle style="fill:#78a8a0" cx="241.6" cy="369.2" r="2.4"/><circle style="fill:#78a8a0" cx="201.6" cy="365.2" r="1.6"/><circle style="fill:#78a8a0" cx="332.8" cy="328.4" r="6.4"/><circle style="fill:#78a8a0" cx="284" cy="375.6" r="4"/><circle style="fill:#78a8a0" cx="245.6" cy="289.2" r="3.2"/><circle style="fill:#78a8a0" cx="353.6" cy="300.4" r="6.4"/><circle style="fill:#78a8a0" cx="134.4" cy="323.6" r="5.6"/><circle style="fill:#78a8a0" cx="309.6" cy="241.2" r="7.2"/></symbol><symbol id="sun-icon" viewBox="0 0 137.797 137.797" style="enable-background:new 0 0 137.797 137.797"><circle style="fill:url(#a)" cx="68.898" cy="68.898" r="68.898"/><path style="fill:#f98b00" d="m68.926 17.297 3.548 6.144 3.546 6.145H61.83l3.549-6.145z"/><path style="fill:#f98b00" d="m86.611 20.41 1.237 6.986 1.237 6.985-6.669-2.421-6.669-2.423 5.432-4.563z"/><path style="fill:#f98b00" d="m102.171 29.372-1.222 6.989-1.222 6.988-5.442-4.553-5.44-4.553 6.663-2.435z"/><path style="fill:#f98b00" d="m113.738 43.107-3.534 6.151-3.535 6.153-3.56-6.137-3.56-6.137 7.095-.014z"/><path style="fill:#f98b00" d="m119.922 59.55-5.422 4.575-5.423 4.577-1.251-6.984-1.252-6.984 6.674 2.408z"/><path style="fill:#f98b00" d="m119.978 77.507-6.658 2.449-6.657 2.451 1.207-6.991 1.207-6.993 5.451 4.543z"/><path style="fill:#f98b00" d="m113.902 94.405-7.093.03-7.096.03 3.521-6.159 3.524-6.16 3.571 6.13z"/><path style="fill:#f98b00" d="m102.422 108.214-6.678-2.395-6.679-2.392 5.412-4.588 5.415-4.588 1.265 6.982z"/><path style="fill:#f98b00" d="m86.92 117.274-5.46-4.53-5.461-4.528 6.652-2.466 6.655-2.463-1.195 6.993z"/><path style="fill:#f98b00" d="m69.255 120.499-3.586-6.122-3.586-6.121 7.094-.045 7.094-.046-3.507 6.166z"/><path style="fill:#f98b00" d="m51.55 117.5-1.281-6.979-1.282-6.977 6.685 2.379 6.684 2.38-5.404 4.597z"/><path style="fill:#f98b00" d="m35.934 108.637 1.175-6.997 1.178-6.995 5.471 4.517 5.471 4.519-6.648 2.477z"/><path style="fill:#f98b00" d="m24.277 94.975 3.496-6.175 3.495-6.174 3.599 6.114 3.603 6.115-7.096.06z"/><path style="fill:#f98b00" d="m17.988 78.156 5.395-4.611 5.389-4.61 1.297 6.975 1.297 6.977-6.688-2.366z"/><path style="fill:#f98b00" d="m17.816 60.199 6.643-2.492 6.642-2.493-1.162 6.999-1.163 6.999-5.478-4.506z"/><path style="fill:#f98b00" d="m23.784 43.262 7.098-.074 7.092-.075-3.482 6.18-3.482 6.183-3.612-6.106z"/><path style="fill:#f98b00" d="m35.176 29.381 6.695 2.351 6.692 2.351-5.381 4.622-5.384 4.621-1.311-6.971z"/><path style="fill:#f98b00" d="m50.621 20.638 5.49 4.496 5.49 4.494-6.636 2.506-6.64 2.507 1.149-7z"/><circle style="fill:#ffe100" cx="68.897" cy="68.898" r="40.552"/></symbol><symbol id="icon-youtube" viewBox="0 0 48 48"><path d="M43.2 33.9c-.4 2.1-2.1 3.7-4.2 4-3.3.5-8.8 1.1-15 1.1-6.1 0-11.6-.6-15-1.1-2.1-.3-3.8-1.9-4.2-4-.4-2.3-.8-5.7-.8-9.9s.4-7.6.8-9.9c.4-2.1 2.1-3.7 4.2-4C12.3 9.6 17.8 9 24 9c6.2 0 11.6.6 15 1.1 2.1.3 3.8 1.9 4.2 4 .4 2.3.9 5.7.9 9.9-.1 4.2-.5 7.6-.9 9.9z"/><path fill="#FFF" d="M20 31V17l12 7z"/></symbol><symbol id="icon-github" viewBox="0 0 32 32"><path d="M16 .395c-8.836 0-16 7.163-16 16 0 7.069 4.585 13.067 10.942 15.182.8.148 1.094-.347 1.094-.77 0-.381-.015-1.642-.022-2.979-4.452.968-5.391-1.888-5.391-1.888-.728-1.849-1.776-2.341-1.776-2.341-1.452-.993.11-.973.11-.973 1.606.113 2.452 1.649 2.452 1.649 1.427 2.446 3.743 1.739 4.656 1.33.143-1.034.558-1.74 1.016-2.14-3.554-.404-7.29-1.777-7.29-7.907 0-1.747.625-3.174 1.649-4.295-.166-.403-.714-2.03.155-4.234 0 0 1.344-.43 4.401 1.64a15.353 15.353 0 0 1 4.005-.539c1.359.006 2.729.184 4.008.539 3.054-2.07 4.395-1.64 4.395-1.64.871 2.204.323 3.831.157 4.234 1.026 1.12 1.647 2.548 1.647 4.295 0 6.145-3.743 7.498-7.306 7.895.574.497 1.085 1.47 1.085 2.963 0 2.141-.019 3.864-.019 4.391 0 .426.288.925 1.099.768C27.421 29.457 32 23.462 32 16.395c0-8.837-7.164-16-16-16z"/></symbol></defs></svg>