<!-- logo-header -->
<svg aria-hidden="true" style="position:absolute;width:24;height:24;overflow:hidden" xmlns="http://www.w3.org/2000/svg">
    <defs>
        <symbol id="icon-site-logo" viewBox="0 0 32 32">
            <path fill="none" stroke="#fff" style="stroke:var(--color1, #fff)" stroke-linejoin="round"
                stroke-linecap="round" stroke-width="2.667"
                d="M26.427 2.667H5.574a2.907 2.907 0 0 0-2.907 2.907v20.853a2.907 2.907 0 0 0 2.907 2.907h20.853a2.907 2.907 0 0 0 2.907-2.907V5.574a2.907 2.907 0 0 0-2.907-2.907zM9.333 2.667v26.667M22.667 2.667v26.667M2.667 16h26.667M2.667 9.333h6.667M2.667 22.667h6.667M22.667 22.667h6.667M22.667 9.333h6.667" />
        </symbol>
        <!-- search-icon -->
        <symbol id="icon-search-film" viewBox="0 0 32 32">
            <path stroke-linejoin="round" stroke-linecap="round" stroke-width="2.667"
                d="M14.667 25.333c5.891 0 10.667-4.776 10.667-10.667S20.558 3.999 14.667 3.999 4 8.775 4 14.666s4.776 10.667 10.667 10.667zM28 28.001l-5.8-5.8" />
        </symbol>
        <!-- orange-heart footer-->
        <symbol id="icon-heart" viewBox="0 0 34 32">
<path fill="#ff6b08" style="fill: var(--color5, #ff6b08)" d="M17.231 31.705l-2.412-2.412c-8.96-7.926-14.818-13.268-14.818-19.815-0.001-0.037-0.001-0.080-0.001-0.124 0-5.166 4.188-9.354 9.354-9.354 0.044 0 0.087 0 0.13 0.001l-0.007-0c3.1 0.032 5.868 1.423 7.742 3.605l0.012 0.014c1.886-2.195 4.654-3.587 7.748-3.618l0.006-0c0.037-0.001 0.080-0.001 0.124-0.001 5.166 0 9.354 4.188 9.354 9.354 0 0.044-0 0.087-0.001 0.13l0-0.007c0 6.548-5.858 11.889-14.818 19.815l-2.412 2.412z"></path>
</symbol>

    </defs>
</svg>